<!-- Generated by IcoMoon.io -->
<svg version="1.1" xmlns="http://www.w3.org/2000/svg" width="32" height="32" viewBox="0 0 32 32">
<title>iconoPentagono</title>
<path fill="#fff" d="M27.184 16.048c0 1.792-0.016 3.6 0.016 5.392 0.016 0.704-0.24 1.136-0.864 1.488-3.184 1.808-6.368 3.648-9.52 5.504-0.576 0.336-1.024 0.352-1.6 0.016-3.184-1.872-6.416-3.696-9.584-5.6-0.4-0.24-0.768-0.896-0.768-1.376-0.080-3.648-0.048-7.28-0.064-10.912 0-0.704 0.24-1.136 0.864-1.488 3.184-1.792 6.368-3.632 9.52-5.488 0.576-0.336 1.024-0.352 1.6-0.016 3.184 1.872 6.416 3.696 9.584 5.6 0.4 0.24 0.752 0.896 0.768 1.376 0.096 1.824 0.048 3.664 0.048 5.504z"></path>
</svg>
